<svg xmlns="http://www.w3.org/2000/svg" viewBox="0 0 240.28 240.28"><path d="M124.94,244.71A120.14,120.14,0,1,1,245.08,124.57,120.27,120.27,0,0,1,124.94,244.71Zm0-230A109.86,109.86,0,1,0,234.8,124.57,110,110,0,0,0,124.94,14.71Z" transform="translate(-4.81 -4.43)" fill="#6667ab"/><path d="M84,183.48c-.41,0-.82,0-1.23,0-6.47-.48-14-4.88-15.31-12.11-1.11-6.29,3.05-11.05,3.9-11.94a16.46,16.46,0,0,1,10.52-4.79,18.24,18.24,0,0,1,12,3.12c.93-7.41,2-15.86,2.88-23.36,2.28-18.66,2.51-20.41,2.65-21,2.21-9.81,12-19.92,24.53-19.92h.12c13.64.07,24.73,11,24.73,24.27S137.68,141.91,124,142h0a5.14,5.14,0,0,1,0-10.28c8,0,14.48-6.31,14.49-14s-6.64-14-14.5-14h-.07c-8.06,0-13.42,7.09-14.5,11.91-.13.78-1.27,10.12-2.48,20-1.18,9.66-2.56,20.89-3.64,29.45a43.12,43.12,0,0,0,6.45,4.43c13.85,7.38,31.5.95,34.89-.42,18.52-7.45,25.35-24.62,26.53-28,5.85-16.66,1.21-36.17-11.82-49.7a50.4,50.4,0,0,0-30.91-15.26C125.77,75.84,102,74,86.7,91.87a45.28,45.28,0,0,0-10.51,28.57,5.14,5.14,0,0,1-10.28-.15,55.59,55.59,0,0,1,13-35.09c18.69-21.92,47.42-19.64,50.63-19.31a60.75,60.75,0,0,1,37.27,18.36c15.69,16.3,21.23,39.94,14.11,60.23-1.44,4.1-9.75,25-32.39,34.13-5.82,2.34-26.14,9.24-43.56-.06a43.65,43.65,0,0,1-5.47-3.48,20,20,0,0,1-2.9,3.28A18.66,18.66,0,0,1,84,183.48Zm-.39-18.69-.66,0a6.63,6.63,0,0,0-4.14,1.65,4.45,4.45,0,0,0-1.23,3.09c.32,1.79,3.51,3.45,6,3.63a8.61,8.61,0,0,0,6.11-2.44,10.49,10.49,0,0,0,1.79-2.14C88.41,166.22,86.05,164.79,83.61,164.79Z" transform="translate(-4.81 -4.43)" fill="#6667ab"/></svg>